# xmcd
# Track frame offsets:
# 180
# 15430
# 33286
# 51794
# 67032
# 80424
# 95714
# 120455
# 136895
# 150014
# 165189
# 182846
# 199771
#
# Disc length: 2858 seconds
# Revision: 0
# Processed by: cddbd v1.4PL0 Copyright (c) Steve Scherf et al.
# Submitted via: VisiTrax 2.9.5.180 - For more info visit www.synapsa.com
#
DISCID=970b280d
DTITLE=Woody Wills - Country Pleasure
DYEAR=1900
DGENRE=
TTITLE0=Bluest heartache of the year
TTITLE1=Dreamin' of love
TTITLE2=Sweetness
TTITLE3=Don't worry about me
TTITLE4=Some broken hearts never mend
TTITLE5=An angel got in my way
TTITLE6=Back in love by monday
TTITLE7=I never go around mirrors
TTITLE8=The shoe goes on the other foot
TTITLE9=Love you forever
TTITLE10=Bull rider
TTITLE11=When I learn to love
TTITLE12=Treasures of mama
EXTD=
EXTT0=
EXTT1=
EXTT2=
EXTT3=
EXTT4=
EXTT5=
EXTT6=
EXTT7=
EXTT8=
EXTT9=
EXTT10=
EXTT11=
EXTT12=
PLAYORDER=
